<svg xmlns="http://www.w3.org/2000/svg" xmlns:xlink="http://www.w3.org/1999/xlink" width="300" zoomAndPan="magnify" viewBox="0 0 224.87999 112.499997" height="150" preserveAspectRatio="xMidYMid meet" version="1.0"><defs><g/><clipPath id="4d895b6748"><rect x="0" width="147" y="0" height="14"/></clipPath></defs><g fill="#f97316" fill-opacity="1"><g transform="translate(0.437786, 79.734909)"><g><path d="M 13.859375 1.0625 C 11.648438 1.0625 9.765625 0.425781 8.203125 -0.84375 C 6.640625 -2.125 5.859375 -3.796875 5.859375 -5.859375 C 5.859375 -7.640625 6.25 -9.3125 7.03125 -10.875 C 7.8125 -12.4375 8.203125 -14 8.203125 -15.5625 C 8.203125 -19.113281 8.003906 -22.554688 7.609375 -25.890625 C 7.222656 -29.234375 7.03125 -32.859375 7.03125 -36.765625 C 7.03125 -42.734375 7.9375 -47.796875 9.75 -51.953125 C 11.5625 -56.109375 13.992188 -59.269531 17.046875 -61.4375 C 20.097656 -63.601562 23.472656 -64.6875 27.171875 -64.6875 C 29.585938 -64.6875 31.253906 -64.148438 32.171875 -63.078125 C 33.097656 -62.015625 33.5625 -60.8125 33.5625 -59.46875 C 33.5625 -58.257812 33.148438 -57.101562 32.328125 -56 C 31.515625 -54.894531 30.222656 -54.34375 28.453125 -54.34375 C 25.890625 -54.34375 23.6875 -52.78125 21.84375 -49.65625 C 20 -46.53125 19.078125 -42.234375 19.078125 -36.765625 C 19.078125 -33.492188 19.289062 -30.382812 19.71875 -27.4375 C 20.144531 -24.488281 20.566406 -21.59375 20.984375 -18.75 C 21.410156 -15.914062 21.625 -12.96875 21.625 -9.90625 C 21.625 -8.269531 21.394531 -6.597656 20.9375 -4.890625 C 20.476562 -3.191406 19.679688 -1.773438 18.546875 -0.640625 C 17.410156 0.492188 15.847656 1.0625 13.859375 1.0625 Z M 13.859375 1.0625 "/></g></g></g><g fill="#f97316" fill-opacity="1"><g transform="translate(28.038244, 79.734909)"><g><path d="M 5.015625 -40.28125 C 5.015625 -42.695312 5.648438 -44.472656 6.921875 -45.609375 C 8.203125 -46.742188 9.625 -47.3125 11.1875 -47.3125 C 13.394531 -47.3125 14.992188 -46.191406 15.984375 -43.953125 C 16.972656 -41.710938 17.46875 -38.179688 17.46875 -33.359375 C 17.46875 -30.515625 17.238281 -27.796875 16.78125 -25.203125 C 16.320312 -22.609375 15.613281 -20.492188 14.65625 -18.859375 C 13.695312 -17.222656 12.398438 -16.40625 10.765625 -16.40625 C 9.554688 -16.40625 8.3125 -16.9375 7.03125 -18 C 5.75 -19.070312 5.109375 -20.640625 5.109375 -22.703125 C 5.109375 -23.835938 5.160156 -25.039062 5.265625 -26.3125 C 5.378906 -27.59375 5.4375 -29.015625 5.4375 -30.578125 C 5.4375 -32.210938 5.363281 -34.003906 5.21875 -35.953125 C 5.082031 -37.910156 5.015625 -39.351562 5.015625 -40.28125 Z M 5.015625 -40.28125 "/></g></g></g><g fill="#f97316" fill-opacity="1"><g transform="translate(50.630118, 79.734909)"><g><path d="M 24.296875 -46.25 C 25.710938 -46.25 27.128906 -45.644531 28.546875 -44.4375 C 29.972656 -43.226562 31.253906 -41.71875 32.390625 -39.90625 C 33.523438 -38.09375 34.429688 -36.226562 35.109375 -34.3125 C 35.785156 -32.394531 36.125 -30.726562 36.125 -29.3125 C 36.125 -27.25 35.410156 -25.554688 33.984375 -24.234375 C 32.566406 -22.921875 30.8125 -21.800781 28.71875 -20.875 C 26.625 -19.957031 24.507812 -19.109375 22.375 -18.328125 C 20.25 -17.546875 18.472656 -16.726562 17.046875 -15.875 C 15.628906 -15.019531 14.921875 -13.957031 14.921875 -12.6875 C 14.921875 -11.539062 15.613281 -10.679688 17 -10.109375 C 18.382812 -9.546875 20.285156 -9.265625 22.703125 -9.265625 C 24.335938 -9.265625 25.898438 -9.335938 27.390625 -9.484375 C 28.878906 -9.628906 29.976562 -9.703125 30.6875 -9.703125 C 32.175781 -9.703125 33.3125 -9.273438 34.09375 -8.421875 C 34.875 -7.566406 35.265625 -6.570312 35.265625 -5.4375 C 35.265625 -3.59375 34.164062 -2.132812 31.96875 -1.0625 C 29.769531 0 26.644531 0.53125 22.59375 0.53125 C 16.976562 0.53125 12.550781 -0.0507812 9.3125 -1.21875 C 6.082031 -2.394531 3.8125 -3.890625 2.5 -5.703125 C 1.1875 -7.515625 0.53125 -9.414062 0.53125 -11.40625 C 0.53125 -13.53125 1.148438 -15.359375 2.390625 -16.890625 C 3.640625 -18.421875 5.257812 -19.734375 7.25 -20.828125 C 9.238281 -21.929688 11.347656 -22.910156 13.578125 -23.765625 C 15.816406 -24.617188 17.929688 -25.363281 19.921875 -26 C 21.910156 -26.632812 23.523438 -27.269531 24.765625 -27.90625 C 26.015625 -28.550781 26.640625 -29.226562 26.640625 -29.9375 C 26.640625 -30.789062 26.265625 -31.554688 25.515625 -32.234375 C 24.773438 -32.910156 23.90625 -33.617188 22.90625 -34.359375 C 21.914062 -35.109375 21.046875 -35.976562 20.296875 -36.96875 C 19.554688 -37.96875 19.1875 -39.25 19.1875 -40.8125 C 19.1875 -42.65625 19.753906 -44.019531 20.890625 -44.90625 C 22.023438 -45.800781 23.160156 -46.25 24.296875 -46.25 Z M 24.296875 -46.25 "/></g></g></g><g fill="#f97316" fill-opacity="1"><g transform="translate(91.124992, 79.734909)"><g><path d="M 5.015625 -40.28125 C 5.015625 -42.695312 5.648438 -44.472656 6.921875 -45.609375 C 8.203125 -46.742188 9.625 -47.3125 11.1875 -47.3125 C 13.394531 -47.3125 14.992188 -46.191406 15.984375 -43.953125 C 16.972656 -41.710938 17.46875 -38.179688 17.46875 -33.359375 C 17.46875 -30.515625 17.238281 -27.796875 16.78125 -25.203125 C 16.320312 -22.609375 15.613281 -20.492188 14.65625 -18.859375 C 13.695312 -17.222656 12.398438 -16.40625 10.765625 -16.40625 C 9.554688 -16.40625 8.3125 -16.9375 7.03125 -18 C 5.75 -19.070312 5.109375 -20.640625 5.109375 -22.703125 C 5.109375 -23.835938 5.160156 -25.039062 5.265625 -26.3125 C 5.378906 -27.59375 5.4375 -29.015625 5.4375 -30.578125 C 5.4375 -32.210938 5.363281 -34.003906 5.21875 -35.953125 C 5.082031 -37.910156 5.015625 -39.351562 5.015625 -40.28125 Z M 5.015625 -40.28125 "/></g></g></g><g fill="#f97316" fill-opacity="1"><g transform="translate(113.716865, 79.734909)"><g><path d="M 8.53125 -25.890625 C 7.175781 -25.890625 5.984375 -26.367188 4.953125 -27.328125 C 3.921875 -28.285156 3.40625 -29.40625 3.40625 -30.6875 C 3.40625 -32.320312 4.3125 -34.046875 6.125 -35.859375 C 7.9375 -37.671875 10.351562 -39.234375 13.375 -40.546875 C 16.394531 -41.859375 19.679688 -42.515625 23.234375 -42.515625 C 27.140625 -42.515625 30.722656 -41.695312 33.984375 -40.0625 C 37.253906 -38.425781 40.097656 -36.273438 42.515625 -33.609375 C 44.929688 -30.953125 46.8125 -27.988281 48.15625 -24.71875 C 49.507812 -21.457031 50.1875 -18.226562 50.1875 -15.03125 C 50.1875 -12.613281 49.742188 -10.25 48.859375 -7.9375 C 47.972656 -5.625 46.476562 -3.722656 44.375 -2.234375 C 42.28125 -0.742188 39.457031 0 35.90625 0 C 33.78125 0 31.6875 -0.390625 29.625 -1.171875 C 27.5625 -1.953125 25.625 -2.910156 23.8125 -4.046875 C 22 -5.179688 20.398438 -6.265625 19.015625 -7.296875 C 17.628906 -8.328125 16.546875 -9.09375 15.765625 -9.59375 C 15.273438 -8.59375 14.796875 -7.328125 14.328125 -5.796875 C 13.867188 -4.273438 13.191406 -2.925781 12.296875 -1.75 C 11.410156 -0.582031 10.082031 0 8.3125 0 C 6.320312 0 4.773438 -0.601562 3.671875 -1.8125 C 2.578125 -3.019531 2.03125 -4.296875 2.03125 -5.640625 C 2.03125 -6.421875 2.207031 -7.1875 2.5625 -7.9375 C 2.914062 -8.6875 3.34375 -9.34375 3.84375 -9.90625 C 4.40625 -10.6875 5.078125 -11.570312 5.859375 -12.5625 C 6.640625 -13.5625 7.140625 -14.3125 7.359375 -14.8125 C 7.921875 -16.019531 8.695312 -16.941406 9.6875 -17.578125 C 10.6875 -18.222656 11.71875 -18.546875 12.78125 -18.546875 C 13.925781 -18.546875 15.242188 -18.097656 16.734375 -17.203125 C 18.222656 -16.316406 19.816406 -15.304688 21.515625 -14.171875 C 23.222656 -13.035156 25 -12.019531 26.84375 -11.125 C 28.695312 -10.238281 30.507812 -9.796875 32.28125 -9.796875 C 34.5625 -9.796875 36.035156 -10.472656 36.703125 -11.828125 C 37.378906 -13.179688 37.71875 -14.53125 37.71875 -15.875 C 37.71875 -18.21875 37.023438 -20.613281 35.640625 -23.0625 C 34.253906 -25.519531 32.367188 -27.582031 29.984375 -29.25 C 27.609375 -30.914062 24.894531 -31.75 21.84375 -31.75 C 19.925781 -31.75 18.34375 -31.445312 17.09375 -30.84375 C 15.851562 -30.238281 14.769531 -29.5625 13.84375 -28.8125 C 12.925781 -28.070312 12.054688 -27.398438 11.234375 -26.796875 C 10.421875 -26.191406 9.519531 -25.890625 8.53125 -25.890625 Z M 8.53125 -25.890625 "/></g></g></g><g fill="#f97316" fill-opacity="1"><g transform="translate(166.786466, 79.734909)"><g><path d="M 37.71875 -31.96875 C 39.78125 -31.96875 41.21875 -31.488281 42.03125 -30.53125 C 42.851562 -29.570312 43.265625 -28.59375 43.265625 -27.59375 C 43.265625 -26.882812 43.015625 -26.117188 42.515625 -25.296875 C 42.015625 -24.484375 41.164062 -23.898438 39.96875 -23.546875 C 38.46875 -23.117188 37.238281 -22.265625 36.28125 -20.984375 C 35.320312 -19.710938 34.84375 -18.257812 34.84375 -16.625 C 34.84375 -14.632812 35.585938 -13 37.078125 -11.71875 C 38.578125 -10.4375 40.425781 -9.796875 42.625 -9.796875 C 44.40625 -9.796875 45.84375 -10.1875 46.9375 -10.96875 C 48.039062 -11.75 49.035156 -12.53125 49.921875 -13.3125 C 50.804688 -14.101562 51.820312 -14.5 52.96875 -14.5 C 54.101562 -14.5 55.023438 -14.085938 55.734375 -13.265625 C 56.441406 -12.453125 56.796875 -11.441406 56.796875 -10.234375 C 56.796875 -8.804688 56.15625 -7.289062 54.875 -5.6875 C 53.601562 -4.09375 51.789062 -2.742188 49.4375 -1.640625 C 47.09375 -0.546875 44.289062 0 41.03125 0 C 35.914062 0 31.738281 -1.453125 28.5 -4.359375 C 25.269531 -7.273438 23.65625 -11.078125 23.65625 -15.765625 C 23.65625 -18.753906 24.296875 -21.472656 25.578125 -23.921875 C 26.859375 -26.367188 28.582031 -28.320312 30.75 -29.78125 C 32.914062 -31.238281 35.238281 -31.96875 37.71875 -31.96875 Z M 7.03125 -51.046875 C 6.957031 -52.890625 7.578125 -54.363281 8.890625 -55.46875 C 10.210938 -56.570312 11.65625 -57.125 13.21875 -57.125 C 14.632812 -57.125 15.960938 -56.609375 17.203125 -55.578125 C 18.453125 -54.546875 19.113281 -53.140625 19.1875 -51.359375 C 19.25 -47.734375 19.296875 -44.800781 19.328125 -42.5625 C 19.367188 -40.332031 19.390625 -37.867188 19.390625 -35.171875 C 19.390625 -30.765625 19.316406 -27.175781 19.171875 -24.40625 C 19.035156 -21.632812 18.859375 -19.269531 18.640625 -17.3125 C 18.429688 -15.363281 18.179688 -13.425781 17.890625 -11.5 C 17.609375 -9.582031 17.328125 -7.273438 17.046875 -4.578125 C 16.835938 -2.878906 16.144531 -1.601562 14.96875 -0.75 C 13.800781 0.101562 12.503906 0.53125 11.078125 0.53125 C 9.585938 0.53125 8.1875 0.0507812 6.875 -0.90625 C 5.5625 -1.863281 4.90625 -3.125 4.90625 -4.6875 C 4.90625 -5.613281 5.097656 -7.175781 5.484375 -9.375 C 5.878906 -11.582031 6.269531 -14.765625 6.65625 -18.921875 C 7.050781 -23.078125 7.25 -28.523438 7.25 -35.265625 C 7.25 -37.753906 7.25 -40.097656 7.25 -42.296875 C 7.25 -44.503906 7.175781 -47.421875 7.03125 -51.046875 Z M 7.03125 -51.046875 "/></g></g></g><g transform="matrix(1, 0, 0, 1, 7, 84)"><g clip-path="url(#4d895b6748)"><g fill="#ffffff" fill-opacity="1"><g transform="translate(1.05242, 8.600253)"><g><path d="M 3.546875 -3.015625 C 3.546875 -3.429688 3.453125 -3.734375 3.265625 -3.921875 C 3.078125 -4.109375 2.769531 -4.203125 2.34375 -4.203125 L 0.609375 -4.203125 L 0.609375 -4.8125 L 2.390625 -4.8125 C 3.015625 -4.8125 3.488281 -4.660156 3.8125 -4.359375 C 4.132812 -4.054688 4.296875 -3.601562 4.296875 -3 L 4.296875 0 L 3.546875 0 Z M 0.609375 -1.640625 C 0.609375 -1.890625 0.625 -2.085938 0.65625 -2.234375 C 0.695312 -2.378906 0.753906 -2.519531 0.828125 -2.65625 L 1.453125 -2.65625 C 1.421875 -2.53125 1.394531 -2.390625 1.375 -2.234375 C 1.351562 -2.085938 1.34375 -1.90625 1.34375 -1.6875 L 1.34375 0 L 0.609375 0 Z M 0.609375 -1.640625 "/></g></g></g><g fill="#ffffff" fill-opacity="1"><g transform="translate(9.327119, 8.600253)"><g><path d="M 2.359375 -0.59375 C 2.628906 -0.601562 2.863281 -0.660156 3.0625 -0.765625 C 3.269531 -0.878906 3.425781 -1.035156 3.53125 -1.234375 C 3.644531 -1.441406 3.703125 -1.6875 3.703125 -1.96875 L 3.703125 -4.203125 L 0.734375 -4.203125 L 0.734375 -4.8125 L 4.46875 -4.8125 L 4.46875 -1.984375 C 4.46875 -1.585938 4.378906 -1.238281 4.203125 -0.9375 C 4.035156 -0.644531 3.789062 -0.414062 3.46875 -0.25 C 3.15625 -0.09375 2.785156 -0.0078125 2.359375 0 Z M 0.828125 -1.8125 C 0.828125 -2.050781 0.84375 -2.238281 0.875 -2.375 C 0.914062 -2.519531 0.96875 -2.664062 1.03125 -2.8125 L 1.65625 -2.8125 C 1.625 -2.695312 1.597656 -2.5625 1.578125 -2.40625 C 1.566406 -2.257812 1.5625 -2.078125 1.5625 -1.859375 L 1.5625 1.703125 L 0.828125 1.703125 Z M 0.828125 -1.8125 "/></g></g></g><g fill="#ffffff" fill-opacity="1"><g transform="translate(17.884021, 8.600253)"><g><path d="M 1.109375 -4.203125 L 0.21875 -4.203125 L 0.21875 -4.8125 L 1.875 -4.8125 L 1.875 -2.125 L 1.109375 -2.125 Z M 1.109375 -4.203125 "/></g></g></g><g fill="#ffffff" fill-opacity="1"><g transform="translate(23.762031, 8.600253)"><g><path d="M 2.671875 0.09375 C 2.285156 0.09375 1.945312 0.015625 1.65625 -0.140625 C 1.363281 -0.304688 1.132812 -0.535156 0.96875 -0.828125 C 0.8125 -1.117188 0.734375 -1.457031 0.734375 -1.84375 L 0.734375 -4.8125 L 1.5 -4.8125 L 1.5 -1.796875 C 1.5 -1.535156 1.546875 -1.304688 1.640625 -1.109375 C 1.734375 -0.921875 1.867188 -0.773438 2.046875 -0.671875 C 2.222656 -0.566406 2.425781 -0.515625 2.65625 -0.515625 C 2.882812 -0.515625 3.085938 -0.566406 3.265625 -0.671875 C 3.441406 -0.773438 3.578125 -0.921875 3.671875 -1.109375 C 3.773438 -1.304688 3.828125 -1.535156 3.828125 -1.796875 L 3.828125 -3.40625 C 3.828125 -3.664062 3.765625 -3.867188 3.640625 -4.015625 C 3.523438 -4.160156 3.363281 -4.234375 3.15625 -4.234375 C 2.976562 -4.234375 2.78125 -4.179688 2.5625 -4.078125 L 2.453125 -4.578125 C 2.585938 -4.671875 2.738281 -4.738281 2.90625 -4.78125 C 3.070312 -4.832031 3.226562 -4.859375 3.375 -4.859375 C 3.625 -4.859375 3.835938 -4.800781 4.015625 -4.6875 C 4.203125 -4.582031 4.34375 -4.421875 4.4375 -4.203125 C 4.53125 -3.992188 4.578125 -3.75 4.578125 -3.46875 L 4.578125 -1.84375 C 4.578125 -1.457031 4.5 -1.117188 4.34375 -0.828125 C 4.1875 -0.535156 3.960938 -0.304688 3.671875 -0.140625 C 3.378906 0.015625 3.046875 0.09375 2.671875 0.09375 Z M 2.671875 0.09375 "/></g></g></g><g fill="#ffffff" fill-opacity="1"><g transform="translate(32.278034, 8.600253)"><g><path d="M 1.0625 -3.0625 C 1.09375 -3.28125 1.15625 -3.488281 1.25 -3.6875 C 1.351562 -3.882812 1.472656 -4.039062 1.609375 -4.15625 C 1.617188 -4.15625 1.644531 -4.171875 1.6875 -4.203125 L 1.6875 -4.21875 C 1.5625 -4.195312 1.40625 -4.160156 1.21875 -4.109375 C 1.03125 -4.066406 0.863281 -4.019531 0.71875 -3.96875 L 0.546875 -4.546875 C 0.859375 -4.648438 1.207031 -4.734375 1.59375 -4.796875 C 1.988281 -4.867188 2.351562 -4.90625 2.6875 -4.90625 C 3.332031 -4.90625 3.828125 -4.734375 4.171875 -4.390625 C 4.515625 -4.046875 4.6875 -3.539062 4.6875 -2.875 L 4.6875 0 L 2.703125 0 L 2.703125 -0.609375 L 3.9375 -0.609375 L 3.9375 -2.953125 C 3.9375 -3.378906 3.835938 -3.703125 3.640625 -3.921875 C 3.453125 -4.148438 3.171875 -4.265625 2.796875 -4.265625 C 2.535156 -4.265625 2.316406 -4.160156 2.140625 -3.953125 C 1.960938 -3.753906 1.851562 -3.484375 1.8125 -3.140625 L 1.453125 0 L 0.703125 0 Z M 1.0625 -3.0625 "/></g></g></g><g fill="#ffffff" fill-opacity="1"><g transform="translate(40.941274, 8.600253)"><g><path d="M 2.703125 -4.8125 C 3.347656 -4.8125 3.828125 -4.660156 4.140625 -4.359375 C 4.453125 -4.054688 4.609375 -3.59375 4.609375 -2.96875 L 4.609375 0 L 3.859375 0 L 3.84375 -3.015625 C 3.84375 -3.429688 3.753906 -3.734375 3.578125 -3.921875 C 3.398438 -4.109375 3.113281 -4.203125 2.71875 -4.203125 L 2.03125 -4.203125 C 1.9375 -4.054688 1.863281 -3.867188 1.8125 -3.640625 C 1.757812 -3.410156 1.734375 -3.175781 1.734375 -2.9375 L 1.734375 -1.3125 C 1.734375 -0.863281 1.628906 -0.523438 1.421875 -0.296875 C 1.210938 -0.0664062 0.90625 0.046875 0.5 0.046875 C 0.382812 0.046875 0.226562 0.03125 0.03125 0 L 0.03125 -0.609375 C 0.125 -0.597656 0.21875 -0.59375 0.3125 -0.59375 C 0.550781 -0.59375 0.722656 -0.648438 0.828125 -0.765625 C 0.941406 -0.890625 1 -1.085938 1 -1.359375 L 1 -2.875 C 1 -3.125 1.03125 -3.367188 1.09375 -3.609375 C 1.15625 -3.859375 1.242188 -4.054688 1.359375 -4.203125 L 0.46875 -4.203125 L 0.46875 -4.8125 Z M 2.703125 -4.8125 "/></g></g></g><g fill="#ffffff" fill-opacity="1"><g transform="translate(49.522716, 8.600253)"><g><path d="M 1.0625 -3.0625 C 1.09375 -3.28125 1.15625 -3.488281 1.25 -3.6875 C 1.351562 -3.882812 1.472656 -4.039062 1.609375 -4.15625 C 1.617188 -4.15625 1.644531 -4.171875 1.6875 -4.203125 L 1.6875 -4.21875 C 1.5625 -4.195312 1.40625 -4.160156 1.21875 -4.109375 C 1.03125 -4.066406 0.863281 -4.019531 0.71875 -3.96875 L 0.546875 -4.546875 C 0.859375 -4.648438 1.207031 -4.734375 1.59375 -4.796875 C 1.988281 -4.867188 2.351562 -4.90625 2.6875 -4.90625 C 3.332031 -4.90625 3.828125 -4.734375 4.171875 -4.390625 C 4.515625 -4.046875 4.6875 -3.539062 4.6875 -2.875 L 4.6875 0 L 2.703125 0 L 2.703125 -0.609375 L 3.9375 -0.609375 L 3.9375 -2.953125 C 3.9375 -3.378906 3.835938 -3.703125 3.640625 -3.921875 C 3.453125 -4.148438 3.171875 -4.265625 2.796875 -4.265625 C 2.535156 -4.265625 2.316406 -4.160156 2.140625 -3.953125 C 1.960938 -3.753906 1.851562 -3.484375 1.8125 -3.140625 L 1.453125 0 L 0.703125 0 Z M 1.0625 -3.0625 "/></g></g></g><g fill="#ffffff" fill-opacity="1"><g transform="translate(58.185955, 8.600253)"><g><path d="M 4 -4.34375 L 2.234375 0 L 1.421875 0 L 3.171875 -4.203125 L 0.34375 -4.203125 L 0.34375 -6.28125 L 1.09375 -6.28125 L 1.09375 -4.8125 L 4 -4.8125 Z M 4 -4.34375 "/></g></g></g><g fill="#ffffff" fill-opacity="1"><g transform="translate(65.838987, 8.600253)"><g/></g></g><g fill="#ffffff" fill-opacity="1"><g transform="translate(71.267108, 8.600253)"><g><path d="M 2.703125 -4.8125 C 3.347656 -4.8125 3.828125 -4.660156 4.140625 -4.359375 C 4.453125 -4.054688 4.609375 -3.59375 4.609375 -2.96875 L 4.609375 0 L 3.859375 0 L 3.84375 -3.015625 C 3.84375 -3.429688 3.753906 -3.734375 3.578125 -3.921875 C 3.398438 -4.109375 3.113281 -4.203125 2.71875 -4.203125 L 2.03125 -4.203125 C 1.9375 -4.054688 1.863281 -3.867188 1.8125 -3.640625 C 1.757812 -3.410156 1.734375 -3.175781 1.734375 -2.9375 L 1.734375 -1.3125 C 1.734375 -0.863281 1.628906 -0.523438 1.421875 -0.296875 C 1.210938 -0.0664062 0.90625 0.046875 0.5 0.046875 C 0.382812 0.046875 0.226562 0.03125 0.03125 0 L 0.03125 -0.609375 C 0.125 -0.597656 0.21875 -0.59375 0.3125 -0.59375 C 0.550781 -0.59375 0.722656 -0.648438 0.828125 -0.765625 C 0.941406 -0.890625 1 -1.085938 1 -1.359375 L 1 -2.875 C 1 -3.125 1.03125 -3.367188 1.09375 -3.609375 C 1.15625 -3.859375 1.242188 -4.054688 1.359375 -4.203125 L 0.46875 -4.203125 L 0.46875 -4.8125 Z M 2.703125 -4.8125 "/></g></g></g><g fill="#ffffff" fill-opacity="1"><g transform="translate(79.848549, 8.600253)"><g><path d="M 1.109375 -4.203125 L 0.21875 -4.203125 L 0.21875 -4.8125 L 1.875 -4.8125 L 1.875 -2.125 L 1.109375 -2.125 Z M 1.109375 -4.203125 "/></g></g></g><g fill="#ffffff" fill-opacity="1"><g transform="translate(85.72656, 8.600253)"><g><path d="M 2.671875 0.09375 C 2.285156 0.09375 1.945312 0.015625 1.65625 -0.140625 C 1.363281 -0.304688 1.132812 -0.535156 0.96875 -0.828125 C 0.8125 -1.117188 0.734375 -1.457031 0.734375 -1.84375 L 0.734375 -4.8125 L 1.5 -4.8125 L 1.5 -1.796875 C 1.5 -1.535156 1.546875 -1.304688 1.640625 -1.109375 C 1.734375 -0.921875 1.867188 -0.773438 2.046875 -0.671875 C 2.222656 -0.566406 2.425781 -0.515625 2.65625 -0.515625 C 2.882812 -0.515625 3.085938 -0.566406 3.265625 -0.671875 C 3.441406 -0.773438 3.578125 -0.921875 3.671875 -1.109375 C 3.773438 -1.304688 3.828125 -1.535156 3.828125 -1.796875 L 3.828125 -3.40625 C 3.828125 -3.664062 3.765625 -3.867188 3.640625 -4.015625 C 3.523438 -4.160156 3.363281 -4.234375 3.15625 -4.234375 C 2.976562 -4.234375 2.78125 -4.179688 2.5625 -4.078125 L 2.453125 -4.578125 C 2.585938 -4.671875 2.738281 -4.738281 2.90625 -4.78125 C 3.070312 -4.832031 3.226562 -4.859375 3.375 -4.859375 C 3.625 -4.859375 3.835938 -4.800781 4.015625 -4.6875 C 4.203125 -4.582031 4.34375 -4.421875 4.4375 -4.203125 C 4.53125 -3.992188 4.578125 -3.75 4.578125 -3.46875 L 4.578125 -1.84375 C 4.578125 -1.457031 4.5 -1.117188 4.34375 -0.828125 C 4.1875 -0.535156 3.960938 -0.304688 3.671875 -0.140625 C 3.378906 0.015625 3.046875 0.09375 2.671875 0.09375 Z M 2.671875 0.09375 "/></g></g></g><g fill="#ffffff" fill-opacity="1"><g transform="translate(94.242563, 8.600253)"><g><path d="M 2.734375 -3.359375 C 2.734375 -3.617188 2.65625 -3.820312 2.5 -3.96875 C 2.34375 -4.125 2.128906 -4.203125 1.859375 -4.203125 L 0.25 -4.203125 L 0.25 -4.8125 L 1.890625 -4.8125 C 2.222656 -4.8125 2.507812 -4.75 2.75 -4.625 C 2.988281 -4.507812 3.171875 -4.335938 3.296875 -4.109375 C 3.421875 -3.890625 3.484375 -3.617188 3.484375 -3.296875 L 3.484375 0 L 2.734375 0 Z M 2.734375 -3.359375 "/></g></g></g><g fill="#ffffff" fill-opacity="1"><g transform="translate(101.703369, 8.600253)"><g><path d="M 2.40625 0.078125 C 2.164062 0.078125 1.90625 0.0507812 1.625 0 C 1.34375 -0.0390625 1.070312 -0.101562 0.8125 -0.1875 L 0.96875 -0.765625 C 1.207031 -0.691406 1.445312 -0.632812 1.6875 -0.59375 C 1.9375 -0.5625 2.160156 -0.546875 2.359375 -0.546875 C 2.804688 -0.546875 3.148438 -0.65625 3.390625 -0.875 C 3.628906 -1.09375 3.75 -1.410156 3.75 -1.828125 L 3.75 -4.203125 L 1.828125 -4.203125 C 1.734375 -4.054688 1.660156 -3.867188 1.609375 -3.640625 C 1.554688 -3.410156 1.53125 -3.179688 1.53125 -2.953125 L 1.53125 -2.578125 C 1.59375 -2.554688 1.671875 -2.535156 1.765625 -2.515625 C 1.867188 -2.503906 2.003906 -2.5 2.171875 -2.5 L 2.171875 -1.859375 C 1.835938 -1.859375 1.570312 -1.875 1.375 -1.90625 C 1.175781 -1.945312 0.984375 -2.019531 0.796875 -2.125 L 0.78125 -2.75 C 0.78125 -3.019531 0.8125 -3.285156 0.875 -3.546875 C 0.945312 -3.816406 1.046875 -4.035156 1.171875 -4.203125 L 0.578125 -4.203125 L 0.578125 -4.8125 L 4.515625 -4.8125 L 4.515625 -1.96875 C 4.515625 -1.519531 4.425781 -1.140625 4.25 -0.828125 C 4.070312 -0.523438 3.820312 -0.296875 3.5 -0.140625 C 3.1875 0.00390625 2.820312 0.078125 2.40625 0.078125 Z M 2.40625 0.078125 "/></g></g></g><g fill="#ffffff" fill-opacity="1"><g transform="translate(110.30526, 8.600253)"><g/></g></g><g fill="#ffffff" fill-opacity="1"><g transform="translate(115.733381, 8.600253)"><g><path d="M 3.546875 -3.015625 C 3.546875 -3.429688 3.453125 -3.734375 3.265625 -3.921875 C 3.078125 -4.109375 2.769531 -4.203125 2.34375 -4.203125 L 0.609375 -4.203125 L 0.609375 -4.8125 L 2.390625 -4.8125 C 3.015625 -4.8125 3.488281 -4.660156 3.8125 -4.359375 C 4.132812 -4.054688 4.296875 -3.601562 4.296875 -3 L 4.296875 0 L 3.546875 0 Z M 0.609375 -1.640625 C 0.609375 -1.890625 0.625 -2.085938 0.65625 -2.234375 C 0.695312 -2.378906 0.753906 -2.519531 0.828125 -2.65625 L 1.453125 -2.65625 C 1.421875 -2.53125 1.394531 -2.390625 1.375 -2.234375 C 1.351562 -2.085938 1.34375 -1.90625 1.34375 -1.6875 L 1.34375 0 L 0.609375 0 Z M 0.609375 -1.640625 "/></g></g></g><g fill="#ffffff" fill-opacity="1"><g transform="translate(124.008079, 8.600253)"><g><path d="M 2.734375 -3.359375 C 2.734375 -3.617188 2.65625 -3.820312 2.5 -3.96875 C 2.34375 -4.125 2.128906 -4.203125 1.859375 -4.203125 L 0.25 -4.203125 L 0.25 -4.8125 L 1.890625 -4.8125 C 2.222656 -4.8125 2.507812 -4.75 2.75 -4.625 C 2.988281 -4.507812 3.171875 -4.335938 3.296875 -4.109375 C 3.421875 -3.890625 3.484375 -3.617188 3.484375 -3.296875 L 3.484375 0 L 2.734375 0 Z M 2.734375 -3.359375 "/></g></g></g><g fill="#ffffff" fill-opacity="1"><g transform="translate(131.468885, 8.600253)"><g><path d="M 0.96875 -4.203125 L 0.40625 -4.203125 L 0.40625 -4.8125 L 1.734375 -4.8125 L 1.734375 0 L 0.96875 0 Z M 0.96875 -4.203125 "/></g></g></g><g fill="#ffffff" fill-opacity="1"><g transform="translate(137.289637, 8.600253)"><g><path d="M 1.0625 -3.0625 C 1.09375 -3.28125 1.15625 -3.488281 1.25 -3.6875 C 1.351562 -3.882812 1.472656 -4.039062 1.609375 -4.15625 C 1.617188 -4.15625 1.644531 -4.171875 1.6875 -4.203125 L 1.6875 -4.21875 C 1.5625 -4.195312 1.40625 -4.160156 1.21875 -4.109375 C 1.03125 -4.066406 0.863281 -4.019531 0.71875 -3.96875 L 0.546875 -4.546875 C 0.859375 -4.648438 1.207031 -4.734375 1.59375 -4.796875 C 1.988281 -4.867188 2.351562 -4.90625 2.6875 -4.90625 C 3.332031 -4.90625 3.828125 -4.734375 4.171875 -4.390625 C 4.515625 -4.046875 4.6875 -3.539062 4.6875 -2.875 L 4.6875 0 L 2.703125 0 L 2.703125 -0.609375 L 3.9375 -0.609375 L 3.9375 -2.953125 C 3.9375 -3.378906 3.835938 -3.703125 3.640625 -3.921875 C 3.453125 -4.148438 3.171875 -4.265625 2.796875 -4.265625 C 2.535156 -4.265625 2.316406 -4.160156 2.140625 -3.953125 C 1.960938 -3.753906 1.851562 -3.484375 1.8125 -3.140625 L 1.453125 0 L 0.703125 0 Z M 1.0625 -3.0625 "/></g></g></g></g></g></svg>